<?xml version="1.0" encoding="UTF-8" standalone="no"?>
<!-- Created with Inkscape (http://www.inkscape.org/) -->

<svg
   xmlns:dc="http://purl.org/dc/elements/1.1/"
   xmlns:cc="http://creativecommons.org/ns#"
   xmlns:rdf="http://www.w3.org/1999/02/22-rdf-syntax-ns#"
   xmlns:svg="http://www.w3.org/2000/svg"
   xmlns="http://www.w3.org/2000/svg"
   version="1.1"
   width="744.09448"
   height="1052.3622"
   id="svg2997">
  <defs
     id="defs2999" />
  <metadata
     id="metadata3002">
    <rdf:RDF>
      <cc:Work
         rdf:about="">
        <dc:format>image/svg+xml</dc:format>
        <dc:type
           rdf:resource="http://purl.org/dc/dcmitype/StillImage" />
        <dc:title></dc:title>
      </cc:Work>
    </rdf:RDF>
  </metadata>
  <g
     id="layer1">
    <path
       d="m 96.423377,904.95781 67.235863,-68.2518 c 0,0 38.33864,-55.46463 51.07999,-68.09141 12.68024,-12.74135 60.86519,-67.4039 66.32687,-76.5627 5.51513,-9.15117 23.66469,-66.71643 23.66469,-66.71643 l -0.97012,-16.32392 -23.43554,19.34121 c 0,0 -4.71308,7.73801 -12.68025,6.08041 -8.41785,-1.9326 -7.738,-23.66471 -7.738,-23.66471 l 12.97051,-42.94478 18.14193,-25.48271 V 413.16288 c 0,0 -5.52278,-23.83276 -5.52278,-28.09515 0,-4.7742 9.27339,-34.06861 9.27339,-34.06861 l 7.90605,-61.94225 c 0,0 4.6596,-27.98821 6.76788,-31.68533 1.42845,-3.86518 32.25826,-45.61833 32.25826,-45.61833 l 20.86893,-14.73505 c 0,0 4.78183,-9.89212 5.69082,-13.53579 1.13053,-3.58255 -14.68158,-32.81586 -14.68158,-32.81586 0,0 -4.37697,-9.27339 -4.37697,-19.22662 0,-9.96086 3.46795,-69.336496 50.91195,-69.336496 47.26829,0 53.69243,27.361832 55.3424,45.618336 1.87148,18.14191 6.53872,27.4153 6.53872,27.4153 l 7.89841,9.84629 c 0,0 2.78813,5.69082 -0.67983,9.26574 -3.75061,3.64367 -5.40057,31.96797 -5.40057,31.96797 0,0 0,8.81506 -4.78183,12.68789 -4.49155,3.69712 -18.93633,5.34709 -25.4216,16.385 -6.20263,10.92336 -11.03791,32.87698 -11.03791,32.87698 0,0 21.05226,53.47093 22.75569,98.46288 2.05481,44.41905 5.8054,85.60694 5.8054,85.60694 0,0 44.19753,28.83609 57.11458,34.64151 12.74137,5.4082 40.72192,6.25611 52.72232,11.83234 11.65666,5.40821 23.55013,13.71149 23.55013,13.71149 0,0 10.97681,8.86853 9.27338,19.90644 -1.99371,11.25945 -1.03122,12.74137 -14.96422,14.67395 -13.4212,1.70344 -63.64566,-23.77928 -63.64566,-23.77928 l -48.6891,-7.1651 c 0,0 0,37.48312 6.20263,52.8369 6.48525,15.42255 19.22662,32.82351 21.10573,67.5185 1.53539,34.29778 7.21859,94.65116 8.99076,103.63427 1.75691,9.21227 14.39131,43.68574 16.14822,47.55093 2.05481,3.4756 4.72071,23.55011 7.45537,37.54422 2.44438,13.30662 21.671,59.03952 24.45913,69.90176 2.95617,11.20598 7.33316,28.49236 6.42414,45.50375 -0.79442,17.51553 -5.51515,22.80917 -2.10064,39.3546 3.97977,16.27043 7.50885,17.29401 16.72112,22.80916 8.92964,5.34709 27.36183,10.80875 32.64782,11.43513 5.34708,1.25275 33.6714,-5.06445 32.41864,11.32061 -0.79442,16.1558 -17.11833,23.7716 -17.11833,23.7716 0,0 -18.08844,14.5059 -37.03242,16.2093 -19.39466,1.9326 -81.79522,2.727 -81.79522,2.727 0,0 -16.38502,-5.4005 -16.38502,-9.8921 0,-4.7207 1.03122,-86.73745 1.03122,-86.73745 0,0 -8.47895,-28.09514 -16.43849,-40.95109 -8.18868,-12.68788 -33.78598,-71.78087 -33.78598,-71.78087 L 421.96195,801.10201 408.36507,758.3864 c 0,0 -9.21229,-24.57373 -10.97683,-28.38542 -1.94021,-3.40687 -22.87027,-34.52695 -22.87027,-34.52695 0,0 -27.01045,52.95912 -37.93379,64.61578 -11.09141,11.9393 -20.99116,20.30368 -31.39506,28.43889 -9.67824,8.13523 -44.31213,42.89133 -53.24176,58.30623 -9.1588,15.4149 -32.70894,40.15665 -43.45658,49.1474 -10.98446,8.98311 -19.39466,17.51555 -22.86264,27.47641 -3.69714,10.01434 -8.2498,51.75985 -8.2498,51.75985 0,0 -3.40685,0 2.72702,8.35673 6.4929,8.13523 18.48567,10.57962 18.48567,10.57962 0,0 6.88246,7.73796 5.17902,18.48566 -1.75689,11.0303 -0.79442,13.6504 -13.70381,14.6739 -12.6879,0.7945 -33.44989,-9.0977 -41.75317,-13.5357 -8.12758,-4.7742 -56.144456,-67.68657 -59.154097,-72.98021 -2.727023,-5.68319 -1.023588,-21.78558 -1.023588,-21.78558 l 8.287992,-14.0552 z"
       id="path3"
       style="fill:#2e7d00" />
  </g>
</svg>
